<svg width="20" height="20" viewBox="0 0 20 20" fill="none" xmlns="http://www.w3.org/2000/svg">
<path d="M20 10.2273C20 9.51818 19.9351 8.83636 19.8145 8.18182H10.2041V12.0545H15.6958C15.4546 13.3 14.731 14.3545 13.6457 15.0636V17.5818H16.9573C18.8868 15.8364 20 13.2727 20 10.2273Z" fill="#4285F4"/>
<path d="M10.2042 20C12.9593 20 15.2691 19.1091 16.9574 17.5818L13.6457 15.0636C12.7367 15.6636 11.5771 16.0272 10.2042 16.0272C7.55113 16.0272 5.29695 14.2727 4.4899 11.9091H1.09473V14.4909C2.77376 17.7545 6.21532 20 10.2042 20Z" fill="#34A853"/>
<path d="M4.4898 11.9C4.28571 11.3 4.16512 10.6636 4.16512 9.99995C4.16512 9.33632 4.28571 8.69995 4.4898 8.09995V5.51814H1.09462C0.398887 6.86359 0 8.38177 0 9.99995C0 11.6181 0.398887 13.1363 1.09462 14.4818L3.7384 12.4636L4.4898 11.9Z" fill="#FBBC05"/>
<path d="M10.2042 3.98182C11.707 3.98182 13.0428 4.49091 14.1096 5.47273L17.0316 2.60909C15.2598 0.990909 12.9593 0 10.2042 0C6.21532 0 2.77376 2.24545 1.09473 5.51818L4.4899 8.1C5.29695 5.73636 7.55113 3.98182 10.2042 3.98182Z" fill="#EA4335"/>
</svg>
